# File created by Blade
# Date/Time:  Wed Apr 08 17:17:01 2015
# Frame Rate: 120.000 fps
#------------------------------------------------------
:FULLY-SPECIFIED
:DEGREES
1340
root 8.858009 37.180059 7.814127 199.684913 -11.907197 -154.077504
Spine 8.542377 -2.172347 -4.925077
Head -7.697469 13.814793 18.891662
LeftShoulder -9.066934 17.119666 16.558846
LeftArm 13.672012 34.724045 -74.177834
LeftForeArm 33.328155 -0.000000 27.511418
LeftHand -9.122352 -0.000000 -22.804834
LeftHandThumb1 -26.253704 0.000000 33.147579
RightShoulder -44.724197 -51.949091 33.084823
RightArm 41.516275 -25.407424 68.379752
RightForeArm 27.700916 -0.000000 3.710474
RightHand -6.845725 0.000000 8.727463
RightHandThumb1 -24.326973 -0.000000 -32.862282
LeftUpLeg -54.668995 47.517700 -15.875807
LeftLeg 24.585642 -0.000000 -0.000000
LeftFoot -24.868433 25.460990 -17.816861
LeftToeBase 5.163929 -0.000000 -0.000000
RightUpLeg 23.437753 -10.071169 -21.909801
RightLeg 135.780516 -0.000000 -0.000000
RightFoot 39.349138 6.439155 22.553810
RightToeBase 8.167837 -0.000000 -0.000000
1341
root 8.847837 37.176667 7.831649 199.754657 -11.711075 -154.062582
Spine 8.482994 -2.342355 -4.920959
Head -7.599356 13.911513 19.008343
LeftShoulder -9.011477 17.052093 16.643515
LeftArm 13.581387 34.870077 -74.213035
LeftForeArm 33.406101 -0.000000 27.693854
LeftHand -9.108980 -0.000000 -22.723392
LeftHandThumb1 -26.253704 0.000000 33.147579
RightShoulder -44.770501 -51.936026 33.106203
RightArm 41.544724 -25.322429 68.464143
RightForeArm 27.542523 -0.000000 3.553757
RightHand -6.811430 -0.000000 8.490401
RightHandThumb1 -24.326973 -0.000000 -32.862282
LeftUpLeg -54.768969 47.541653 -15.907602
LeftLeg 24.691245 -0.000000 -0.000000
LeftFoot -25.020366 25.549479 -18.023323
LeftToeBase 5.278225 -0.000000 -0.000000
RightUpLeg 23.443505 -10.193701 -21.953699
RightLeg 135.700086 -0.000000 -0.000000
RightFoot 39.306022 6.386788 22.385713
RightToeBase 8.126044 -0.000000 -0.000000
1342
root 8.835654 37.170518 7.842820 199.820166 -11.490286 -154.029620
Spine 8.386954 -2.453359 -4.895981
Head -7.490889 14.010330 19.131477
LeftShoulder -8.982266 17.027520 16.693427
LeftArm 13.538631 34.968189 -74.218900
LeftForeArm 33.710321 -0.000000 27.859216
LeftHand -9.043745 0.000000 -22.680320
LeftHandThumb1 -26.253704 0.000000 33.147579
RightShoulder -44.855107 -51.950444 33.166397
RightArm 41.598626 -25.256457 68.482536
RightForeArm 27.502092 -0.000000 3.392164
RightHand -6.832249 -0.000000 8.395110
RightHandThumb1 -24.326973 -0.000000 -32.862282
LeftUpLeg -54.933729 47.655241 -15.999378
LeftLeg 24.836032 -0.000000 -0.000000
LeftFoot -25.184117 25.562396 -18.190883
LeftToeBase 5.410386 -0.000000 -0.000000
RightUpLeg 23.454598 -10.253747 -21.969861
RightLeg 135.613086 -0.000000 -0.000000
RightFoot 39.231535 6.401033 22.278478
RightToeBase 8.254348 -0.000000 -0.000000
1343
root 8.824903 37.164254 7.852630 199.867002 -11.252847 -153.968980
Spine 8.294711 -2.511400 -4.849678
Head -7.385450 14.056139 19.249609
LeftShoulder -8.965711 16.991064 16.754211
LeftArm 13.514726 35.082946 -74.213371
LeftForeArm 33.846728 -0.000000 27.987789
LeftHand -9.029430 -0.000000 -22.568331
LeftHandThumb1 -26.253704 0.000000 33.147579
RightShoulder -44.941283 -51.983265 33.236645
RightArm 41.633543 -25.201877 68.507905
RightForeArm 27.401750 0.000000 3.266027
RightHand -6.852211 -0.000000 8.255648
RightHandThumb1 -24.326973 -0.000000 -32.862282
LeftUpLeg -55.153553 47.838284 -16.104304
LeftLeg 25.049920 -0.000000 -0.000000
LeftFoot -25.374806 25.496579 -18.414091
LeftToeBase 5.530310 -0.000000 -0.000000
RightUpLeg 23.468244 -10.296506 -21.966735
RightLeg 135.490640 -0.000000 -0.000000
RightFoot 39.327679 6.429772 22.199040
RightToeBase 8.255407 -0.000000 -0.000000
